v 0.25299375 0 -0.62070625
v -0.343075 0 -0.43276875
v -0.343075 0.25 -0.43276875
v 0.25299375 0 -0.62070625
v -0.343075 0.25 -0.43276875
v 0.25299375 0.25 -0.62070625
v 0.478525 0 0.09458125
v 0.25299375 0 -0.62070625
v 0.25299375 0.25 -0.62070625
v 0.478525 0 0.09458125
v 0.25299375 0.25 -0.62070625
v 0.478525 0.25 0.09458125
v -0.11755 0 0.28251875
v 0.478525 0 0.09458125
v 0.478525 0.25 0.09458125
v -0.11755 0 0.28251875
v 0.478525 0.25 0.09458125
v -0.11755 0.25 0.28251875
v -0.343075 0 -0.43276875
v -0.11755 0 0.28251875
v -0.11755 0.25 0.28251875
v -0.343075 0 -0.43276875
v -0.11755 0.25 0.28251875
v -0.343075 0.25 -0.43276875
v -0.11755 0.25 0.28251875
v 0.478525 0.25 0.09458125
v 0.25299375 0.25 -0.62070625
v -0.11755 0.25 0.28251875
v 0.25299375 0.25 -0.62070625
v -0.343075 0.25 -0.43276875
v -0.343075 0 -0.43276875
v 0.25299375 0 -0.62070625
v 0.478525 0 0.09458125
v -0.343075 0 -0.43276875
v 0.478525 0 0.09458125
v -0.11755 0 0.28251875
v 0.17136875 -0.000625 -0.46390625
v -0.42470625 -0.000625 -0.2759625
v -0.42470625 0.499375 -0.2759625
v 0.17136875 -0.000625 -0.46390625
v -0.42470625 0.499375 -0.2759625
v 0.17136875 0.499375 -0.46390625
v 0.3969 -0.000625 0.25138125
v 0.17136875 -0.000625 -0.46390625
v 0.17136875 0.499375 -0.46390625
v 0.3969 -0.000625 0.25138125
v 0.17136875 0.499375 -0.46390625
v 0.3969 0.499375 0.25138125
v -0.199175 -0.000625 0.439325
v 0.3969 -0.000625 0.25138125
v 0.3969 0.499375 0.25138125
v -0.199175 -0.000625 0.439325
v 0.3969 0.499375 0.25138125
v -0.199175 0.499375 0.439325
v -0.42470625 -0.000625 -0.2759625
v -0.199175 -0.000625 0.439325
v -0.199175 0.499375 0.439325
v -0.42470625 -0.000625 -0.2759625
v -0.199175 0.499375 0.439325
v -0.42470625 0.499375 -0.2759625
v -0.199175 0.499375 0.439325
v 0.3969 0.499375 0.25138125
v 0.17136875 0.499375 -0.46390625
v -0.199175 0.499375 0.439325
v 0.17136875 0.499375 -0.46390625
v -0.42470625 0.499375 -0.2759625
v -0.42470625 -0.000625 -0.2759625
v 0.17136875 -0.000625 -0.46390625
v 0.3969 -0.000625 0.25138125
v -0.42470625 -0.000625 -0.2759625
v 0.3969 -0.000625 0.25138125
v -0.199175 -0.000625 0.439325
v -0.26145 0 -0.58956875
v -0.73830625 0 -0.43921875
v -0.73830625 0.125 -0.43921875
v -0.26145 0 -0.58956875
v -0.73830625 0.125 -0.43921875
v -0.26145 0.125 -0.58956875
v -0.1111 0 -0.1127125
v -0.26145 0 -0.58956875
v -0.26145 0.125 -0.58956875
v -0.1111 0 -0.1127125
v -0.26145 0.125 -0.58956875
v -0.1111 0.125 -0.1127125
v -0.58795625 0 0.03764375
v -0.1111 0 -0.1127125
v -0.1111 0.125 -0.1127125
v -0.58795625 0 0.03764375
v -0.1111 0.125 -0.1127125
v -0.58795625 0.125 0.03764375
v -0.73830625 0 -0.43921875
v -0.58795625 0 0.03764375
v -0.58795625 0.125 0.03764375
v -0.73830625 0 -0.43921875
v -0.58795625 0.125 0.03764375
v -0.73830625 0.125 -0.43921875
v -0.58795625 0.125 0.03764375
v -0.1111 0.125 -0.1127125
v -0.26145 0.125 -0.58956875
v -0.58795625 0.125 0.03764375
v -0.26145 0.125 -0.58956875
v -0.73830625 0.125 -0.43921875
v -0.73830625 0 -0.43921875
v -0.26145 0 -0.58956875
v -0.1111 0 -0.1127125
v -0.73830625 0 -0.43921875
v -0.1111 0 -0.1127125
v -0.58795625 0 0.03764375
v -0.03591875 0 0.12571875
v -0.3935625 0 0.23848125
v -0.3935625 0.125 0.23848125
v -0.03591875 0 0.12571875
v -0.3935625 0.125 0.23848125
v -0.03591875 0.125 0.12571875
v 0.07684375 0 0.4833625
v -0.03591875 0 0.12571875
v -0.03591875 0.125 0.12571875
v 0.07684375 0 0.4833625
v -0.03591875 0.125 0.12571875
v 0.07684375 0.125 0.4833625
v -0.2808 0 0.596125
v 0.07684375 0 0.4833625
v 0.07684375 0.125 0.4833625
v -0.2808 0 0.596125
v 0.07684375 0.125 0.4833625
v -0.2808 0.125 0.596125
v -0.3935625 0 0.23848125
v -0.2808 0 0.596125
v -0.2808 0.125 0.596125
v -0.3935625 0 0.23848125
v -0.2808 0.125 0.596125
v -0.3935625 0.125 0.23848125
v -0.2808 0.125 0.596125
v 0.07684375 0.125 0.4833625
v -0.03591875 0.125 0.12571875
v -0.2808 0.125 0.596125
v -0.03591875 0.125 0.12571875
v -0.3935625 0.125 0.23848125
v -0.3935625 0 0.23848125
v -0.03591875 0 0.12571875
v 0.07684375 0 0.4833625
v -0.3935625 0 0.23848125
v 0.07684375 0 0.4833625
v -0.2808 0 0.596125
vt 0.1875 0.4375
vt 0.3438 0.4375
vt 0.3438 0.5
vt 0.1875 0.4375
vt 0.3438 0.5
vt 0.1875 0.5
vt 0 0.4375
vt 0.1875 0.4375
vt 0.1875 0.5
vt 0 0.4375
vt 0.1875 0.5
vt 0 0.5
vt 0.5313 0.4375
vt 0.6875 0.4375
vt 0.6875 0.5
vt 0.5313 0.4375
vt 0.6875 0.5
vt 0.5313 0.5
vt 0.3438 0.4375
vt 0.5313 0.4375
vt 0.5313 0.5
vt 0.3438 0.4375
vt 0.5313 0.5
vt 0.3438 0.5
vt 0.3438 0.6875
vt 0.1875 0.6875
vt 0.1875 0.5
vt 0.3438 0.6875
vt 0.1875 0.5
vt 0.3438 0.5
vt 0.5 0.5
vt 0.3438 0.5
vt 0.3438 0.6875
vt 0.5 0.5
vt 0.3438 0.6875
vt 0.5 0.6875
vt 0.1875 0.6875
vt 0.3438 0.6875
vt 0.3438 0.8125
vt 0.1875 0.6875
vt 0.3438 0.8125
vt 0.1875 0.8125
vt 0 0.6875
vt 0.1875 0.6875
vt 0.1875 0.8125
vt 0 0.6875
vt 0.1875 0.8125
vt 0 0.8125
vt 0.5313 0.6875
vt 0.6875 0.6875
vt 0.6875 0.8125
vt 0.5313 0.6875
vt 0.6875 0.8125
vt 0.5313 0.8125
vt 0.3438 0.6875
vt 0.5313 0.6875
vt 0.5313 0.8125
vt 0.3438 0.6875
vt 0.5313 0.8125
vt 0.3438 0.8125
vt 0.3438 1
vt 0.1875 1
vt 0.1875 0.8125
vt 0.3438 1
vt 0.1875 0.8125
vt 0.3438 0.8125
vt 0.5 0.8125
vt 0.3438 0.8125
vt 0.3438 1
vt 0.5 0.8125
vt 0.3438 1
vt 0.5 1
vt 0.125 0.2813
vt 0.25 0.2813
vt 0.25 0.3125
vt 0.125 0.2813
vt 0.25 0.3125
vt 0.125 0.3125
vt 0 0.2813
vt 0.125 0.2813
vt 0.125 0.3125
vt 0 0.2813
vt 0.125 0.3125
vt 0 0.3125
vt 0.375 0.2813
vt 0.5 0.2813
vt 0.5 0.3125
vt 0.375 0.2813
vt 0.5 0.3125
vt 0.375 0.3125
vt 0.25 0.2813
vt 0.375 0.2813
vt 0.375 0.3125
vt 0.25 0.2813
vt 0.375 0.3125
vt 0.25 0.3125
vt 0.25 0.4375
vt 0.125 0.4375
vt 0.125 0.3125
vt 0.25 0.4375
vt 0.125 0.3125
vt 0.25 0.3125
vt 0.375 0.3125
vt 0.25 0.3125
vt 0.25 0.4375
vt 0.375 0.3125
vt 0.25 0.4375
vt 0.375 0.4375
vt 0.5938 0.3125
vt 0.6875 0.3125
vt 0.6875 0.3438
vt 0.5938 0.3125
vt 0.6875 0.3438
vt 0.5938 0.3438
vt 0.5 0.3125
vt 0.5938 0.3125
vt 0.5938 0.3438
vt 0.5 0.3125
vt 0.5938 0.3438
vt 0.5 0.3438
vt 0.7813 0.3125
vt 0.875 0.3125
vt 0.875 0.3438
vt 0.7813 0.3125
vt 0.875 0.3438
vt 0.7813 0.3438
vt 0.6875 0.3125
vt 0.7813 0.3125
vt 0.7813 0.3438
vt 0.6875 0.3125
vt 0.7813 0.3438
vt 0.6875 0.3438
vt 0.6875 0.4375
vt 0.5938 0.4375
vt 0.5938 0.3438
vt 0.6875 0.4375
vt 0.5938 0.3438
vt 0.6875 0.3438
vt 0.7813 0.3438
vt 0.6875 0.3438
vt 0.6875 0.4375
vt 0.7813 0.3438
vt 0.6875 0.4375
vt 0.7813 0.4375
vn -0.3007 0 -0.9537
vn -0.3007 0 -0.9537
vn -0.3007 0 -0.9537
vn -0.3007 0 -0.9537
vn -0.3007 0 -0.9537
vn -0.3007 0 -0.9537
vn 0.9537 0 -0.3007
vn 0.9537 0 -0.3007
vn 0.9537 0 -0.3007
vn 0.9537 0 -0.3007
vn 0.9537 0 -0.3007
vn 0.9537 0 -0.3007
vn 0.3007 0 0.9537
vn 0.3007 0 0.9537
vn 0.3007 0 0.9537
vn 0.3007 0 0.9537
vn 0.3007 0 0.9537
vn 0.3007 0 0.9537
vn -0.9537 0 0.3007
vn -0.9537 0 0.3007
vn -0.9537 0 0.3007
vn -0.9537 0 0.3007
vn -0.9537 0 0.3007
vn -0.9537 0 0.3007
vn 0 1 0
vn 0 1 0
vn 0 1 0
vn 0 1 0
vn 0 1 0
vn 0 1 0
vn 0 -1 0
vn 0 -1 0
vn 0 -1 0
vn 0 -1 0
vn 0 -1 0
vn 0 -1 0
vn -0.3007 0 -0.9537
vn -0.3007 0 -0.9537
vn -0.3007 0 -0.9537
vn -0.3007 0 -0.9537
vn -0.3007 0 -0.9537
vn -0.3007 0 -0.9537
vn 0.9537 0 -0.3007
vn 0.9537 0 -0.3007
vn 0.9537 0 -0.3007
vn 0.9537 0 -0.3007
vn 0.9537 0 -0.3007
vn 0.9537 0 -0.3007
vn 0.3007 0 0.9537
vn 0.3007 0 0.9537
vn 0.3007 0 0.9537
vn 0.3007 0 0.9537
vn 0.3007 0 0.9537
vn 0.3007 0 0.9537
vn -0.9537 0 0.3007
vn -0.9537 0 0.3007
vn -0.9537 0 0.3007
vn -0.9537 0 0.3007
vn -0.9537 0 0.3007
vn -0.9537 0 0.3007
vn 0 1 0
vn 0 1 0
vn 0 1 0
vn 0 1 0
vn 0 1 0
vn 0 1 0
vn 0 -1 0
vn 0 -1 0
vn 0 -1 0
vn 0 -1 0
vn 0 -1 0
vn 0 -1 0
vn -0.3007 0 -0.9537
vn -0.3007 0 -0.9537
vn -0.3007 0 -0.9537
vn -0.3007 0 -0.9537
vn -0.3007 0 -0.9537
vn -0.3007 0 -0.9537
vn 0.9537 0 -0.3007
vn 0.9537 0 -0.3007
vn 0.9537 0 -0.3007
vn 0.9537 0 -0.3007
vn 0.9537 0 -0.3007
vn 0.9537 0 -0.3007
vn 0.3007 0 0.9537
vn 0.3007 0 0.9537
vn 0.3007 0 0.9537
vn 0.3007 0 0.9537
vn 0.3007 0 0.9537
vn 0.3007 0 0.9537
vn -0.9537 0 0.3007
vn -0.9537 0 0.3007
vn -0.9537 0 0.3007
vn -0.9537 0 0.3007
vn -0.9537 0 0.3007
vn -0.9537 0 0.3007
vn 0 1 0
vn 0 1 0
vn 0 1 0
vn 0 1 0
vn 0 1 0
vn 0 1 0
vn 0 -1 0
vn 0 -1 0
vn 0 -1 0
vn 0 -1 0
vn 0 -1 0
vn 0 -1 0
vn -0.3007 0 -0.9537
vn -0.3007 0 -0.9537
vn -0.3007 0 -0.9537
vn -0.3007 0 -0.9537
vn -0.3007 0 -0.9537
vn -0.3007 0 -0.9537
vn 0.9537 0 -0.3007
vn 0.9537 0 -0.3007
vn 0.9537 0 -0.3007
vn 0.9537 0 -0.3007
vn 0.9537 0 -0.3007
vn 0.9537 0 -0.3007
vn 0.3007 0 0.9537
vn 0.3007 0 0.9537
vn 0.3007 0 0.9537
vn 0.3007 0 0.9537
vn 0.3007 0 0.9537
vn 0.3007 0 0.9537
vn -0.9537 0 0.3007
vn -0.9537 0 0.3007
vn -0.9537 0 0.3007
vn -0.9537 0 0.3007
vn -0.9537 0 0.3007
vn -0.9537 0 0.3007
vn 0 1 0
vn 0 1 0
vn 0 1 0
vn 0 1 0
vn 0 1 0
vn 0 1 0
vn 0 -1 0
vn 0 -1 0
vn 0 -1 0
vn 0 -1 0
vn 0 -1 0
vn 0 -1 0
f 1/1/1 2/2/2 3/3/3
f 4/4/4 5/5/5 6/6/6
f 7/7/7 8/8/8 9/9/9
f 10/10/10 11/11/11 12/12/12
f 13/13/13 14/14/14 15/15/15
f 16/16/16 17/17/17 18/18/18
f 19/19/19 20/20/20 21/21/21
f 22/22/22 23/23/23 24/24/24
f 25/25/25 26/26/26 27/27/27
f 28/28/28 29/29/29 30/30/30
f 31/31/31 32/32/32 33/33/33
f 34/34/34 35/35/35 36/36/36
f 37/37/37 38/38/38 39/39/39
f 40/40/40 41/41/41 42/42/42
f 43/43/43 44/44/44 45/45/45
f 46/46/46 47/47/47 48/48/48
f 49/49/49 50/50/50 51/51/51
f 52/52/52 53/53/53 54/54/54
f 55/55/55 56/56/56 57/57/57
f 58/58/58 59/59/59 60/60/60
f 61/61/61 62/62/62 63/63/63
f 64/64/64 65/65/65 66/66/66
f 67/67/67 68/68/68 69/69/69
f 70/70/70 71/71/71 72/72/72
f 73/73/73 74/74/74 75/75/75
f 76/76/76 77/77/77 78/78/78
f 79/79/79 80/80/80 81/81/81
f 82/82/82 83/83/83 84/84/84
f 85/85/85 86/86/86 87/87/87
f 88/88/88 89/89/89 90/90/90
f 91/91/91 92/92/92 93/93/93
f 94/94/94 95/95/95 96/96/96
f 97/97/97 98/98/98 99/99/99
f 100/100/100 101/101/101 102/102/102
f 103/103/103 104/104/104 105/105/105
f 106/106/106 107/107/107 108/108/108
f 109/109/109 110/110/110 111/111/111
f 112/112/112 113/113/113 114/114/114
f 115/115/115 116/116/116 117/117/117
f 118/118/118 119/119/119 120/120/120
f 121/121/121 122/122/122 123/123/123
f 124/124/124 125/125/125 126/126/126
f 127/127/127 128/128/128 129/129/129
f 130/130/130 131/131/131 132/132/132
f 133/133/133 134/134/134 135/135/135
f 136/136/136 137/137/137 138/138/138
f 139/139/139 140/140/140 141/141/141
f 142/142/142 143/143/143 144/144/144
